<svg width="24" height="24" viewBox="0 0 24 24" fill="none" xmlns="http://www.w3.org/2000/svg">
<path d="M16.39 15.3101H12.2C12.0673 15.3101 11.9402 15.2574 11.8464 15.1636C11.7526 15.0698 11.7 14.9427 11.7 14.8101C11.7 14.6775 11.7526 14.5503 11.8464 14.4565C11.9402 14.3627 12.0673 14.3101 12.2 14.3101H16.39C16.5226 14.3101 16.6497 14.3627 16.7435 14.4565C16.8373 14.5503 16.89 14.6775 16.89 14.8101C16.89 14.9427 16.8373 15.0698 16.7435 15.1636C16.6497 15.2574 16.5226 15.3101 16.39 15.3101Z" fill="white"/>
<path d="M19.2099 15.0001C19.1507 15.0142 19.0891 15.0142 19.0299 15.0001C18.9683 14.9779 18.9118 14.9436 18.8636 14.8992C18.8155 14.8547 18.7768 14.8011 18.7497 14.7414C18.7227 14.6817 18.7079 14.6172 18.7062 14.5518C18.7045 14.4863 18.716 14.4211 18.7399 14.3601L21.1199 8.00014C21.167 7.87735 21.2606 7.77805 21.3804 7.72377C21.5002 7.66949 21.6365 7.66459 21.7599 7.71014C21.8837 7.75945 21.9838 7.85436 22.0396 7.9753C22.0954 8.09624 22.1027 8.23399 22.0599 8.36014L19.6799 14.6901C19.6396 14.7815 19.5739 14.8593 19.4905 14.9143C19.4072 14.9692 19.3098 14.999 19.2099 15.0001Z" fill="white"/>
<path d="M8.99989 15.1901C8.89556 15.1908 8.79371 15.1582 8.70917 15.0971C8.62464 15.0359 8.56183 14.9494 8.52989 14.8501L5.38989 5.31006H2.38989C2.25728 5.31006 2.13011 5.25738 2.03634 5.16361C1.94257 5.06984 1.88989 4.94267 1.88989 4.81006C1.89245 4.67825 1.94595 4.55256 2.03917 4.45934C2.13239 4.36612 2.25809 4.31262 2.38989 4.31006H5.74989C5.8535 4.31227 5.95398 4.34599 6.03794 4.40673C6.1219 4.46747 6.18537 4.55235 6.21989 4.65006L9.50989 14.5301C9.53181 14.5917 9.54115 14.6572 9.53736 14.7225C9.53357 14.7878 9.51673 14.8518 9.48784 14.9105C9.45894 14.9692 9.41857 15.0215 9.36912 15.0644C9.31967 15.1073 9.26212 15.1398 9.19989 15.1601C9.13637 15.1851 9.06797 15.1954 8.99989 15.1901Z" fill="white"/>
<path d="M10.5398 19.6899C9.94645 19.6899 9.36643 19.514 8.87309 19.1844C8.37974 18.8547 7.99522 18.3862 7.76816 17.838C7.54109 17.2898 7.48168 16.6866 7.59744 16.1047C7.7132 15.5227 7.99892 14.9882 8.41848 14.5686C8.83803 14.1491 9.37258 13.8633 9.95453 13.7476C10.5365 13.6318 11.1397 13.6912 11.6878 13.9183C12.236 14.1454 12.7046 14.5299 13.0342 15.0232C13.3638 15.5166 13.5398 16.0966 13.5398 16.6899C13.5398 17.4856 13.2237 18.2487 12.6611 18.8113C12.0985 19.3739 11.3354 19.6899 10.5398 19.6899ZM10.5398 14.6899C10.1442 14.6899 9.75755 14.8072 9.42866 15.027C9.09976 15.2468 8.84341 15.5591 8.69204 15.9246C8.54066 16.29 8.50105 16.6922 8.57823 17.0801C8.6554 17.4681 8.84588 17.8245 9.12558 18.1042C9.40529 18.3839 9.76165 18.5743 10.1496 18.6515C10.5376 18.7287 10.9397 18.6891 11.3052 18.5377C11.6706 18.3863 11.983 18.13 12.2027 17.8011C12.4225 17.4722 12.5398 17.0855 12.5398 16.6899C12.5398 16.1595 12.3291 15.6508 11.954 15.2757C11.5789 14.9007 11.0702 14.6899 10.5398 14.6899Z" fill="white"/>
<path d="M18.0498 19.6899C17.4565 19.6899 16.8764 19.514 16.3831 19.1844C15.8897 18.8547 15.5052 18.3862 15.2782 17.838C15.0511 17.2898 14.9917 16.6866 15.1075 16.1047C15.2232 15.5227 15.5089 14.9882 15.9285 14.5686C16.348 14.1491 16.8826 13.8633 17.4645 13.7476C18.0465 13.6318 18.6497 13.6912 19.1979 13.9183C19.746 14.1454 20.2146 14.5299 20.5442 15.0232C20.8739 15.5166 21.0498 16.0966 21.0498 16.6899C21.0498 17.4856 20.7337 18.2487 20.1711 18.8113C19.6085 19.3739 18.8455 19.6899 18.0498 19.6899ZM18.0498 14.6899C17.6542 14.6899 17.2676 14.8072 16.9387 15.027C16.6098 15.2468 16.3534 15.5591 16.202 15.9246C16.0507 16.29 16.0111 16.6922 16.0882 17.0801C16.1654 17.4681 16.3559 17.8245 16.6356 18.1042C16.9153 18.3839 17.2717 18.5743 17.6596 18.6515C18.0476 18.7287 18.4497 18.6891 18.8152 18.5377C19.1806 18.3863 19.493 18.13 19.7127 17.8011C19.9325 17.4722 20.0498 17.0855 20.0498 16.6899C20.0498 16.1595 19.8391 15.6508 19.464 15.2757C19.0889 14.9007 18.5802 14.6899 18.0498 14.6899Z" fill="white"/>
</svg>
