<svg width="42" height="42" viewBox="0 0 42 42" fill="none" xmlns="http://www.w3.org/2000/svg">
<rect width="42" height="42" fill="#F9EFCF"/>
<path d="M18.6727 26.4197C17.7872 31.1902 16.7092 35.7647 13.5102 38.1535C12.5249 30.9435 14.9609 25.5272 16.0914 19.7785C14.1629 16.436 16.3242 9.70721 20.3912 11.3645C25.3962 13.405 16.0564 23.793 22.3267 25.0915C28.8734 26.446 31.5474 13.3962 27.4874 9.15071C21.6214 3.02396 10.4127 9.01246 11.7917 17.7852C12.1277 19.9307 14.2784 20.5817 12.6509 23.5427C8.89717 22.6835 7.77716 19.635 7.92241 15.5697C8.15341 8.91971 13.7272 4.26121 19.3167 3.61721C26.3867 2.80171 33.0209 6.28946 33.9362 13.1372C34.9687 20.8652 30.7459 29.2372 23.1877 28.6335C21.1384 28.4707 20.2774 27.426 18.6727 26.4197Z" fill="#F38281"/>
</svg>
